Coordinates
version=1
nRows=18
nColumns=22
inDegrees=yes

Units are S.I. units (second, meters, Newtons, ...)
If the header above contains a line with 'inDegrees', this indicates whether rotational values are in degrees (yes) or radians (no).

endheader
time	pelvis_tilt	pelvis_list	pelvis_rotation	pelvis_tx	pelvis_ty	pelvis_tz	hip_flexion_r	hip_adduction_r	hip_rotation_r	knee_angle_r	ankle_angle_r	subtalar_angle_r	hip_flexion_l	hip_adduction_l	hip_rotation_l	knee_angle_l	ankle_angle_l	subtalar_angle_l	lumbar_extension	lumbar_bending	lumbar_rotation
      0.01000000	     -8.82293598	      5.90656445	    -50.03941981	     -0.92203315	      0.97946626	     -0.19205104	     15.89405967	      3.98038656	     -6.55244688	    -18.12139466	     17.59410082	    -10.81104236	     18.49542377	     -2.59151099	     -3.79881865	    -21.06252948	     20.59186060	     -2.01375869	      4.20056873	      3.76699511	      4.77634587
      0.02000000	     -8.82796938	      5.90394552	    -50.04434624	     -0.92208797	      0.97946723	     -0.19211341	     15.91109517	      3.98266374	     -6.58037043	    -18.14022945	     17.58591750	    -10.78525064	     18.50623780	     -2.59905582	     -3.80402569	    -21.07243698	     20.57845222	     -2.00519441	      4.19259880	      3.77811734	      4.79233543
      0.03000000	     -8.82809122	      5.90428465	    -50.04311850	     -0.92213255	      0.97946990	     -0.19216235	     15.91567603	      3.98275729	     -6.58082004	    -18.13945066	     17.58625476	    -10.78299338	     18.51052150	     -2.59864703	     -3.80350161	    -21.07097238	     20.57917432	     -2.00423599	      4.18743549	      3.77995785	      4.79224165
      0.04000000	     -8.83010535	      5.90043312	    -50.03513824	     -0.92218390	      0.97945886	     -0.19223996	     15.93286258	      3.98491463	     -6.58031554	    -18.16665337	     17.58916167	    -10.76902624	     18.52441000	     -2.59966164	     -3.78490415	    -21.08858424	     20.58213554	     -1.99644658	      4.17699107	      3.78706011	      4.79007840
      0.05000000	     -8.82914996	      5.89972648	    -50.02635200	     -0.92219866	      0.97945362	     -0.19228706	     15.93553708	      3.98335552	     -6.57850490	    -18.16883932	     17.59029678	    -10.76771339	     18.52761365	     -2.59707387	     -3.78510161	    -21.08794169	     20.58277239	     -1.99553864	      4.17477856	      3.79143420	      4.79066214
      0.06000000	     -8.82612380	      5.89616655	    -50.01159979	     -0.92224703	      0.97943969	     -0.19236369	     15.94904020	      3.98194539	     -6.56851783	    -18.19613426	     17.60064935	    -10.76154358	     18.54004228	     -2.59305101	     -3.76407566	    -21.10729174	     20.58397256	     -1.98956371	      4.16040523	      3.79172344	      4.77567376
      0.07000000	     -8.82464916	      5.89497508	    -50.00014834	     -0.92225602	      0.97943434	     -0.19240676	     15.95110625	      3.97998186	     -6.56601047	    -18.20010493	     17.60231791	    -10.76089320	     18.54254033	     -2.59013095	     -3.76396260	    -21.10747355	     20.58409341	     -1.98881801	      4.15868259	      3.79607592	      4.77619379
      0.08000000	     -8.82142695	      5.89161933	    -49.98505365	     -0.92230782	      0.97942098	     -0.19248382	     15.96521950	      3.97811330	     -6.56054547	    -18.22787810	     17.61450702	    -10.75772369	     18.55589783	     -2.58591094	     -3.74333794	    -21.12927869	     20.58145777	     -1.98421652	      4.14287237	      3.79642596	      4.75867595
      0.09000000	     -8.82077347	      5.89134651	    -49.97588539	     -0.92233042	      0.97941814	     -0.19252294	     15.96825329	      3.97704853	     -6.55979487	    -18.22954280	     17.61558201	    -10.75738575	     18.55879917	     -2.58457105	     -3.74379367	    -21.12830214	     20.58137350	     -1.98380536	      4.13989474	      3.79932458	      4.75925256
      0.10000000	     -8.82036690	      5.89069614	    -49.96641692	     -0.92236146	      0.97941610	     -0.19256394	     15.97275776	      3.97679439	     -6.55840418	    -18.23395936	     17.61666929	    -10.75702429	     18.56324386	     -2.58353508	     -3.74247456	    -21.12944457	     20.58071185	     -1.98324899	      4.13444085	      3.80153080	      4.75811429
      0.11000000	     -8.82190157	      5.88890460	    -49.95254556	     -0.92241296	      0.97940058	     -0.19262997	     15.99037025	      3.97699872	     -6.55999350	    -18.26114020	     17.62216260	    -10.75503478	     18.58151959	     -2.58269602	     -3.72032376	    -21.15332805	     20.57526428	     -1.97932770	      4.12426786	      3.80497351	      4.73863025
      0.12000000	     -8.82253848	      5.88993072	    -49.94435187	     -0.92242808	      0.97939870	     -0.19266023	     15.99331697	      3.97597950	     -6.56039315	    -18.26011572	     17.62273462	    -10.75482085	     18.58474750	     -2.58096596	     -3.72082459	    -21.15065242	     20.57555226	     -1.97891699	      4.12274181	      3.80786825	      4.73920372
      0.13000000	     -8.82337744	      5.89093771	    -49.93466059	     -0.92244427	      0.97939555	     -0.19268329	     15.99652317	      3.97525224	     -6.55998557	    -18.26055815	     17.62319237	    -10.75462427	     18.58856164	     -2.57964818	     -3.71927269	    -21.14856706	     20.57552807	     -1.97825530	      4.12180694	      3.80888939	      4.73800769
      0.14000000	     -8.83446818	      5.90987549	    -49.89967164	     -0.92245655	      0.97935560	     -0.19274211	     16.02441604	      3.96532137	     -6.57008976	    -18.26760254	     17.62971081	    -10.75318671	     18.62408000	     -2.56277921	     -3.66249955	    -21.15751688	     20.56825884	     -1.96737760	      4.14484927	      3.80022204	      4.68826769
      0.15000000	     -8.83569959	      5.91150579	    -49.89232049	     -0.92246120	      0.97935609	     -0.19276552	     16.02755866	      3.96333488	     -6.57205941	    -18.26622542	     17.63012151	    -10.75323266	     18.62705759	     -2.56125519	     -3.66430660	    -21.15455510	     20.56798948	     -1.96705732	      4.14330147	      3.80365988	      4.69100002
      0.16000000	     -8.83707870	      5.91345539	    -49.88347660	     -0.92247374	      0.97935578	     -0.19277684	     16.03025500	      3.96204037	     -6.57401729	    -18.26576492	     17.63049918	    -10.75330493	     18.63110583	     -2.56056693	     -3.66480382	    -21.15195054	     20.56726347	     -1.96645377	      4.14298114	      3.80240454	      4.69176427
      0.17000000	     -8.83829425	      5.91743323	    -49.87229982	     -0.92248239	      0.97935571	     -0.19279348	     16.03440961	      3.95855465	     -6.57682178	    -18.26476431	     17.63103933	    -10.75350753	     18.63747801	     -2.55745660	     -3.66443249	    -21.15014600	     20.56559740	     -1.96517150	      4.14310876	      3.79984913	      4.68994416
      0.18000000	     -8.85255625	      5.96754245	    -49.83525271	     -0.92245966	      0.97928184	     -0.19286332	     16.09983235	      3.92045711	     -6.62834537	    -18.29131790	     17.64645814	    -10.75982694	     18.69817695	     -2.52019991	     -3.62033770	    -21.15662982	     20.53486787	     -1.93892232	      4.19874501	      3.77531158	      4.64319997
